<svg width="101" height="47" viewBox="0 0 101 47" fill="none" xmlns="http://www.w3.org/2000/svg">
<g clip-path="url(#clip0_2_9)">
<path fill-rule="evenodd" clip-rule="evenodd" d="M98.271 32.8019V33.5726L98.304 33.5066C98.6061 32.9716 98.9413 32.7029 99.2434 32.7029C99.4794 32.7029 99.7461 32.8372 100.015 33.1059L99.68 33.7093C99.4463 33.4759 99.2434 33.3746 99.0427 33.3746C98.8421 33.3746 98.6391 33.4759 98.507 33.6763C98.3394 33.8766 98.271 34.1453 98.271 34.414V36.1887H97.6007V32.7712H98.271V32.8019ZM94.412 34.1099H96.1232C96.0901 33.8412 96.0217 33.6409 95.8872 33.4736C95.7526 33.3392 95.552 33.2402 95.316 33.2402C95.08 33.2402 94.8794 33.3062 94.7118 33.4736C94.5466 33.6056 94.4451 33.8412 94.412 34.1099ZM96.7274 34.5106H94.412C94.4451 34.8453 94.5466 35.1139 94.7472 35.3143C94.9478 35.5146 95.2169 35.6159 95.519 35.6159C95.9556 35.6159 96.3923 35.4816 96.7274 35.2129V35.8823C96.5598 36.0166 96.3592 36.1156 96.1562 36.1839C95.9556 36.2499 95.7196 36.2853 95.4529 36.2853C95.0847 36.2853 94.7826 36.2193 94.5466 36.052C94.3106 35.8846 94.143 35.6843 93.9754 35.4156C93.8409 35.1469 93.7748 34.8453 93.7748 34.5106C93.7748 33.9756 93.9093 33.5726 94.2114 33.2379C94.5135 32.9032 94.8817 32.7359 95.3514 32.7359C95.8211 32.7359 96.1562 32.9032 96.4253 33.2049C96.6943 33.5066 96.8289 33.9426 96.7274 34.4776V34.5789V34.5106ZM92.8685 32.6675H93.6072L92.0637 36.2193H91.83L90.7892 33.8082L89.7837 36.2193H89.5501L88.0065 32.6675H88.7452L89.6515 34.7769L90.5248 32.6675H91.0275L91.9008 34.7769L92.8071 32.6675H92.8685ZM86.0263 33.3392C85.6911 33.3392 85.4221 33.4406 85.2215 33.6739C85.0208 33.8742 84.9194 34.1429 84.9194 34.4776C84.9194 34.8123 85.0208 35.0809 85.2545 35.2813C85.4551 35.4816 85.7572 35.5829 86.0924 35.5829C86.4275 35.5829 86.6966 35.4816 86.8972 35.2813C87.0978 35.0809 87.2323 34.8123 87.2323 34.4776C87.2323 34.1429 87.1309 33.8742 86.8972 33.6739C86.6635 33.4736 86.3945 33.3392 86.0593 33.3392H86.0263ZM86.0593 32.7359C86.5951 32.7359 86.9987 32.9032 87.3669 33.2379C87.702 33.5726 87.8696 34.0086 87.8696 34.5106C87.8696 35.0126 87.702 35.4156 87.3338 35.7503C86.9987 36.085 86.529 36.2523 86.0263 36.2523C85.5236 36.2523 85.0869 36.085 84.7518 35.7503C84.4166 35.4156 84.2491 35.0126 84.2491 34.5106C84.2491 34.0086 84.4166 33.6056 84.7848 33.2709C85.12 32.9362 85.5566 32.7689 86.0924 32.7689L86.0593 32.7359ZM81.6977 33.3062H81.228V35.4156C81.4286 35.517 81.6647 35.5829 81.8653 35.5829C82.1674 35.5829 82.4364 35.4816 82.6371 35.2483C82.8377 35.0149 82.9392 34.7463 82.9392 34.4116C82.9392 34.1783 82.9061 33.9756 82.8046 33.8082C82.7031 33.6409 82.571 33.5066 82.401 33.4406C82.2335 33.3746 81.9974 33.3392 81.6623 33.3392L81.6977 33.3062ZM80.5577 37.895V32.8019H81.6647C82.2358 32.8019 82.6701 32.9362 83.0076 33.2379C83.3428 33.5396 83.4773 33.9402 83.4773 34.4776C83.4773 34.9796 83.3428 35.4156 83.0406 35.7173C82.7385 36.052 82.3703 36.2193 81.9007 36.2193C81.7001 36.2193 81.464 36.1863 81.2304 36.085V37.895H80.5577ZM77.5367 33.7069V36.1863H76.8664V34.2773C76.8664 33.9096 76.8333 33.6409 76.7318 33.4736C76.6304 33.3062 76.4628 33.2402 76.1961 33.2402C76.0616 33.2402 75.927 33.2732 75.8279 33.3416C75.7288 33.4099 75.5942 33.5089 75.4243 33.6763V36.1557H74.6525V32.7382H75.3228V33.1743C75.658 32.8396 75.9931 32.6393 76.3283 32.6393C76.7649 32.6393 77.1 32.8396 77.3337 33.2756C77.7019 32.8726 78.0724 32.6393 78.4737 32.6393C78.8088 32.6393 79.0779 32.7736 79.3115 33.0069C79.5122 33.2402 79.6467 33.6103 79.6467 34.1123V36.1227H78.9764V34.0793C78.9764 33.7776 78.9103 33.5773 78.8088 33.4099C78.7073 33.2426 78.5398 33.1766 78.3061 33.1766C78.037 33.1766 77.7703 33.311 77.5343 33.6126V33.7069H77.5367ZM70.9966 30.9612H74.0153V31.6305H71.8014V33.2049H73.9138V33.9756H71.8014V35.5499H74.0153V36.2193H70.9966V30.9942V30.9612ZM66.1983 33.3392C65.8632 33.3392 65.5941 33.4406 65.3935 33.6739C65.1929 33.8742 65.0914 34.1429 65.0914 34.4776C65.0914 34.8123 65.1929 35.0809 65.4265 35.2813C65.6271 35.4816 65.9293 35.5829 66.2644 35.5829C66.5995 35.5829 66.8686 35.4816 67.0692 35.2813C67.2698 35.0809 67.4044 34.8123 67.4044 34.4776C67.4044 34.1429 67.3029 33.8742 67.0692 33.6739C66.8356 33.4736 66.5665 33.3392 66.2314 33.3392H66.1983ZM66.2314 32.7359C66.7671 32.7359 67.1707 32.9032 67.5389 33.2379C67.8741 33.5726 68.0416 34.0086 68.0416 34.5106C68.0416 35.0126 67.8741 35.4156 67.5059 35.7503C67.1707 36.085 66.701 36.2523 66.1983 36.2523C65.6956 36.2523 65.259 36.085 64.9238 35.7503C64.5887 35.4156 64.4211 35.0126 64.4211 34.5106C64.4211 34.0086 64.5887 33.6056 64.9569 33.2709C65.292 32.9362 65.7286 32.7689 66.2644 32.7689L66.2314 32.7359ZM60.7628 30.9612H65.0914V31.6305H63.3802V36.2193H62.6085V31.6305H60.7628V30.9612ZM57.6096 32.8019V33.5726L57.6426 33.5066C57.9447 32.9716 58.2799 32.7029 58.582 32.7029C58.8156 32.7029 59.0847 32.8372 59.3538 33.1059L59.0186 33.7093C58.785 33.4759 58.582 33.3746 58.3814 33.3746C58.1807 33.3746 57.9778 33.4759 57.8456 33.6763C57.678 33.8766 57.6119 34.1453 57.6119 34.414V36.1887H56.9416V32.7712H57.6119V32.8019H57.6096ZM53.8191 34.1099H55.5303C55.4972 33.8412 55.4288 33.6409 55.2966 33.4736C55.1621 33.3392 54.9614 33.2402 54.7254 33.2402C54.4918 33.2402 54.2888 33.3062 54.1212 33.4736C53.9536 33.6056 53.8522 33.8412 53.8191 34.1099ZM56.302 34.5106H53.7861C53.8191 34.8453 53.9206 35.1139 54.1212 35.3143C54.3218 35.5146 54.5909 35.6159 54.893 35.6159C55.3296 35.6159 55.7663 35.4816 56.1675 35.2129V35.8823C55.9338 36.0166 55.7309 36.1156 55.5303 36.1839C55.3296 36.2499 55.0936 36.2853 54.8269 36.2853C54.4587 36.2853 54.1566 36.2193 53.9206 36.052C53.6869 35.8846 53.517 35.6843 53.3494 35.4156C53.2149 35.1469 53.1488 34.8453 53.1488 34.5106C53.1488 33.9756 53.2833 33.5726 53.5855 33.2379C53.8876 32.9032 54.2557 32.7359 54.7254 32.7359C55.1951 32.7359 55.5303 32.9032 55.7993 33.2049C56.0684 33.5066 56.2029 33.9426 56.302 34.4776V34.5789V34.5106ZM52.2755 32.6675H53.0143L51.4707 36.2193H51.2371L50.1962 33.8082L49.1908 36.2193H48.9571L47.4136 32.6675H48.1523L49.0586 34.7769L49.9319 32.6675H50.4346L51.3079 34.7769L52.2142 32.6675H52.2755ZM45.4334 33.3392C45.0982 33.3392 44.8291 33.4406 44.6285 33.6739C44.4279 33.8742 44.3264 34.1429 44.3264 34.4776C44.3264 34.8123 44.4279 35.0809 44.6616 35.2813C44.8622 35.4816 45.1643 35.5829 45.4994 35.5829C45.8346 35.5829 46.1036 35.4816 46.3043 35.2813C46.5049 35.0809 46.6064 34.8123 46.6064 34.4776C46.6064 34.1429 46.5049 33.8742 46.2712 33.6739C46.0352 33.4736 45.7685 33.3392 45.4334 33.3392ZM45.4664 32.7359C46.0022 32.7359 46.4058 32.9032 46.7739 33.2379C47.1091 33.5726 47.2767 34.0086 47.2767 34.5106C47.2767 35.0126 47.1091 35.4156 46.7409 35.7503C46.4058 36.085 45.9361 36.2523 45.4334 36.2523C44.9306 36.2523 44.494 36.085 44.1589 35.7503C43.8237 35.4156 43.6561 35.0126 43.6561 34.5106C43.6561 34.0086 43.8237 33.6056 44.1919 33.2709C44.527 32.9362 44.9637 32.7689 45.4994 32.7689L45.4664 32.7359ZM41.709 31.5975H40.9702V33.1719H41.7751C42.0772 33.1719 42.2778 33.1059 42.4453 32.9716C42.6129 32.8372 42.679 32.6369 42.679 32.3682C42.6814 31.8639 42.3462 31.5975 41.709 31.5975ZM40.1654 36.1863V30.9612H41.7751C42.2447 30.9612 42.6483 31.0955 42.9481 31.3642C43.2502 31.6329 43.3847 31.9676 43.3847 32.4036C43.3847 32.7052 43.3186 32.9739 43.151 33.1743C43.0165 33.4076 42.8159 33.5773 42.5468 33.6763C42.2778 33.7776 41.9096 33.8436 41.4399 33.8436H40.9702V36.1887H40.1984H40.1654V36.1863Z" fill="white"/>
<path fill-rule="evenodd" clip-rule="evenodd" d="M25.1688 34.9466L24.0949 36.8227C22.0816 40.1387 18.7939 43.7565 15.2371 45.4322C14.8689 45.5995 14.5998 45.7339 14.2316 45.9012C13.998 46.0025 13.3253 46.2359 13.1578 46.3372C20.4366 44.8642 25.8391 41.6141 30.3352 36.1863C34.0596 31.6965 37.9162 24.3597 37.3804 16.0872C36.8777 8.14699 32.3485 2.18419 25.6715 0.508472C18.5272 -1.30158 13.1247 1.91551 9.26816 7.07463C8.99909 7.44229 8.12818 8.68199 7.99365 9.08501C13.2616 6.47128 19.535 5.29993 24.8336 9.151C29.4643 12.5001 30.8379 19.2336 29.6319 25.0974C28.9286 28.5148 27.5526 31.0932 25.8414 33.9426C25.7069 34.1759 25.2372 34.7793 25.1711 34.982V34.9466H25.1688Z" fill="#E35C21"/>
<path fill-rule="evenodd" clip-rule="evenodd" d="M6.75209 46.0025C6.24937 46.3372 4.33761 45.7338 3.83253 45.6678C4.77189 46.3372 6.75209 46.8745 8.19416 46.9735C10.375 47.1079 11.3143 46.7049 13.193 46.3372C13.3276 46.2358 14.0309 46.0025 14.2669 45.9012C14.6351 45.7668 14.9042 45.6325 15.2724 45.4322C18.8292 43.7564 22.1169 40.1387 24.1302 36.8226L25.2041 34.9466C25.3386 34.5789 25.6077 34.0746 25.7752 33.6739C27.2173 30.3908 28.2582 26.6717 27.923 22.988C27.7224 20.7773 27.1843 18.8329 26.2449 17.2255C23.1247 12.0004 16.5823 10.056 10.9461 12.5354C7.85901 13.8741 5.91186 16.0848 4.30221 18.8659C4.06855 19.2335 3.89861 19.7025 3.698 20.0042C3.93166 19.9712 4.6704 19.5022 5.00554 19.3349C6.51607 18.6325 7.9251 18.1282 9.63624 17.8265C14.0309 17.0888 18.6947 18.5288 20.9416 22.3163C22.0154 24.091 22.3175 26.6387 22.0485 29.0828C21.5788 33.4052 19.398 37.928 17.2856 40.5064C16.7829 41.1097 15.9096 42.0807 15.3054 42.6157C14.6021 43.2191 13.9294 43.7871 13.0231 44.3244C11.5126 45.2625 8.46086 46.4008 6.74973 45.9648V46.0025H6.75209Z" fill="#0E933C"/>
<path fill-rule="evenodd" clip-rule="evenodd" d="M3.83256 45.6679C4.33528 45.7692 6.24704 46.3702 6.75212 46.0026C5.91425 45.7692 5.47762 45.3002 5.14247 44.5625C4.23615 42.4862 5.00794 38.7011 5.51066 36.6553C5.91425 35.015 6.34853 33.4736 6.88665 31.8992L8.43021 27.3765H2.289C1.92081 27.9468 1.08058 31.1615 0.879961 32.0996C-0.158523 36.3537 -1.26545 43.6575 3.83256 45.6679Z" fill="#04589D"/>
<path fill-rule="evenodd" clip-rule="evenodd" d="M2.62415 23.3225L3.06078 23.8245C3.36289 23.5559 3.69803 23.2212 4.20075 22.9879C5.27464 22.4859 6.41461 22.4529 7.4885 22.9549C7.72216 23.0562 7.92514 23.1882 8.12575 23.3225C8.35941 23.4899 8.4609 23.6572 8.69692 23.7916L9.1666 23.3225C8.93294 22.9879 8.32873 22.5519 7.85905 22.2832C6.61759 21.6468 5.2416 21.7128 4.00014 22.2832C3.5635 22.4835 2.86016 22.9855 2.65719 23.3225H2.62415Z" fill="#04589D"/>
<path fill-rule="evenodd" clip-rule="evenodd" d="M3.43127 24.1924L3.90095 24.7274C4.37063 24.4941 5.34303 23.3534 7.02112 24.1241C7.4908 24.3574 7.52385 24.4258 7.85899 24.7274L8.39476 24.1241C7.72446 23.6551 7.18634 23.0847 5.91183 23.0847C4.87099 23.0847 4.09921 23.5207 3.46196 24.2231L3.43127 24.1924Z" fill="#04589D"/>
<path fill-rule="evenodd" clip-rule="evenodd" d="M4.30225 25.0643L4.80497 25.4673C4.87105 25.4344 4.90646 25.4014 4.9395 25.366C5.20856 25.1657 5.51066 25.0313 5.87885 25.0313C6.58219 25.0313 6.71672 25.333 7.15336 25.5333L7.4885 25.0643C6.78517 24.1593 5.00794 24.0933 4.30225 25.0643Z" fill="#04589D"/>
<path fill-rule="evenodd" clip-rule="evenodd" d="M5.0741 25.8681L5.98041 26.7731L6.71915 25.9365C6.14798 25.4015 5.71371 25.4345 5.07646 25.9035V25.8681H5.0741Z" fill="#04589D"/>
<path fill-rule="evenodd" clip-rule="evenodd" d="M39.8302 27.3764C41.1731 27.4094 44.0573 27.5438 45.0981 27.1077C48.1499 25.835 49.0231 21.4136 47.5126 19.7379C46.5072 18.6655 44.0903 18.9672 42.6152 18.9342L39.8302 27.3434V27.3764ZM43.7882 20.4072C48.0814 20.0042 46.6724 24.6283 44.7937 25.6324C43.9204 26.1014 43.0165 25.967 41.9095 25.967L43.7882 20.3719V20.4072Z" fill="white"/>
<path fill-rule="evenodd" clip-rule="evenodd" d="M52.2755 25.5003C51.7397 25.6347 51.3692 25.835 51.2016 26.238C50.9325 26.8414 51.1685 27.242 51.5367 27.5437C50.1277 28.0787 49.6911 29.0521 50.3283 29.6884C51.3338 30.7278 55.8984 30.2588 55.1266 27.6121C54.7584 26.3724 52.9127 26.8744 52.5776 26.238C52.8797 25.5357 53.583 26.4054 55.0935 25.4014C55.7638 24.9653 56.0659 24.1287 56.0659 22.9903H56.8708L57.2059 21.7836C55.2942 21.5503 52.5422 21.5149 51.8388 23.5583C51.7373 23.893 51.6713 24.296 51.7373 24.6967C51.7704 24.897 51.8034 24.9653 51.9049 25.0997L52.207 25.5357L52.2755 25.5003ZM53.9205 22.9526C55.195 22.5166 54.7253 24.527 54.022 24.8286C53.3517 25.0973 52.9812 24.7627 53.1157 24.058C53.2172 23.4876 53.4508 23.1199 53.8875 22.9526H53.9205ZM52.2094 27.9774C53.2833 27.6427 54.5908 28.7811 53.0827 29.0827C51.6713 29.3514 50.5643 28.4817 52.2094 27.9774Z" fill="white"/>
<path fill-rule="evenodd" clip-rule="evenodd" d="M89.7152 21.68C87.6028 21.8143 85.9247 22.116 85.2875 24.5954C84.5488 27.5108 87.1001 27.6782 89.347 27.3081L92.099 18.9673H90.6239L89.7176 21.7154V21.68H89.7152ZM88.2071 26.0684C85.8917 26.5704 86.2953 23.021 89.2125 23.153C89.078 23.6904 88.4738 25.7338 88.2071 26.0684Z" fill="white"/>
<path fill-rule="evenodd" clip-rule="evenodd" d="M66.4673 27.0065C66.4673 27.0065 66.5003 27.0725 66.5003 27.1409C66.5003 27.2092 66.4673 27.3082 66.4673 27.4425H67.8763L69.7551 21.9158C68.4475 21.7154 67.4727 21.6141 66.2667 22.0831C62.7783 23.4241 62.8444 29.3869 66.4673 27.0419V27.0065ZM67.8079 23.0871C67.6403 23.8248 67.3382 24.5601 67.1046 25.2648C66.937 25.7998 66.9039 25.8352 66.4343 26.0355C64.7231 26.7732 65.1267 24.8288 65.797 23.9591C66.2667 23.3558 66.7033 22.9881 67.8103 23.0541V23.0871H67.8079Z" fill="white"/>
<path fill-rule="evenodd" clip-rule="evenodd" d="M96.8288 27.0064L96.8619 27.4424H98.2379L100.117 21.9486C97.6667 21.2463 95.5213 22.2503 94.648 23.7587C93.4065 25.9034 94.2114 28.7834 96.8619 27.0087H96.8288V27.0064ZM98.1694 23.087C98.0349 23.7893 97.6997 24.5953 97.4661 25.2977C97.1309 26.37 95.991 26.37 95.7549 26.1013C95.2522 25.531 95.8895 22.9526 98.1694 23.1199V23.087Z" fill="white"/>
<path fill-rule="evenodd" clip-rule="evenodd" d="M78.5774 27.308H80.0526L80.9919 24.5599C81.025 24.4256 81.058 24.3266 81.0934 24.2582C81.2279 23.7892 81.1949 23.7562 81.6646 23.4216C82.9721 22.4835 83.1751 23.0539 82.873 24.0249L81.8321 27.4423H83.2081L84.4165 23.7916C84.4496 23.6573 84.4826 23.5229 84.518 23.4569C84.6856 22.6532 84.6195 21.8496 83.8477 21.6822C82.9745 21.5149 82.2711 21.9839 81.7 22.3186L81.8345 21.7836L80.3924 21.7506L78.5468 27.3457V27.2797L78.5774 27.308Z" fill="white"/>
<path fill-rule="evenodd" clip-rule="evenodd" d="M61.3339 21.8142H60.2931L59.8564 22.9855H60.8288C60.8288 22.9855 57.9777 28.715 62.4715 27.1407L62.7406 25.7006C62.5069 25.7666 62.0703 26.0023 61.8673 25.9693C60.8949 25.9033 62.101 23.5583 62.304 23.0209L63.4439 22.9879L63.8475 21.6469H62.7736L63.1772 20.5745L61.6667 20.5415L61.2631 21.7129V21.7458L61.3339 21.8142Z" fill="white"/>
<path fill-rule="evenodd" clip-rule="evenodd" d="M75.3912 27.3079L76.9678 27.3409L79.7859 18.9341H78.1763L75.3912 27.3079Z" fill="white"/>
<path fill-rule="evenodd" clip-rule="evenodd" d="M69.3184 27.3409L70.7604 27.3763L73.5785 18.9341H72.1034L69.3184 27.3409Z" fill="white"/>
<path fill-rule="evenodd" clip-rule="evenodd" d="M51.27 19.4363C51.6736 19.4363 51.9403 19.8393 51.8057 20.3083C51.7042 20.7773 51.27 21.1803 50.8664 21.1803C50.4628 21.1803 50.1961 20.7773 50.3306 20.3083C50.4297 19.8369 50.8664 19.4363 51.27 19.4363ZM48.0153 27.4425H49.4904L51.2676 21.8143H49.7925L48.0153 27.4425Z" fill="white"/>
<path fill-rule="evenodd" clip-rule="evenodd" d="M59.4883 19.4363C59.8919 19.4363 60.1586 19.8393 60.0241 20.3083C59.9226 20.7773 59.4883 21.1803 59.0847 21.1803C58.6811 21.1803 58.4144 20.7773 58.5489 20.3083C58.6504 19.8369 59.0871 19.4363 59.4883 19.4363ZM56.236 27.4425H57.7111L59.4883 21.8143H58.0132L56.236 27.4425Z" fill="white"/>
<path fill-rule="evenodd" clip-rule="evenodd" d="M93.8762 19.4363C94.2798 19.4363 94.5465 19.8393 94.4119 20.3083C94.3104 20.7773 93.8762 21.1803 93.4726 21.1803C93.069 21.1803 92.8023 20.7773 92.9368 20.3083C93.0359 19.8369 93.4726 19.4363 93.8762 19.4363ZM90.6215 27.4425H92.0966L93.8738 21.8143H92.3987L90.6215 27.4425Z" fill="white"/>
<path fill-rule="evenodd" clip-rule="evenodd" d="M99.4769 28.2131H56.2004V28.7481H99.4769V28.2131Z" fill="white"/>
<path fill-rule="evenodd" clip-rule="evenodd" d="M48.3505 28.2131H39.5612V28.7481H48.3505V28.2131Z" fill="white"/>
</g>
<defs>
<clipPath id="clip0_2_9">
<rect width="101" height="47" fill="white"/>
</clipPath>
</defs>
</svg>
